G04 #@! TF.FileFunction,Soldermask,Top*
%FSLAX46Y46*%
G04 Gerber Fmt 4.6, Leading zero omitted, Abs format (unit mm)*
G04 Created by KiCad (PCBNEW 4.0.7) date 07/05/18 11:54:09*
%MOMM*%
%LPD*%
G01*
G04 APERTURE LIST*
%ADD10C,0.100000*%
%ADD11R,1.900000X1.650000*%
%ADD12R,1.650000X1.900000*%
%ADD13R,1.900000X3.600000*%
%ADD14R,1.800000X3.600000*%
%ADD15R,1.700000X1.900000*%
%ADD16R,3.900000X2.400000*%
%ADD17C,2.400000*%
%ADD18R,2.480000X4.000000*%
%ADD19O,2.480000X4.000000*%
%ADD20C,5.200000*%
%ADD21R,5.200000X5.200000*%
%ADD22R,2.800000X1.900000*%
%ADD23R,1.900000X1.700000*%
%ADD24O,3.400000X4.200000*%
%ADD25R,2.000000X2.800000*%
%ADD26O,2.000000X2.800000*%
%ADD27R,1.050000X2.900000*%
%ADD28R,6.700000X7.000000*%
%ADD29R,2.850000X0.700000*%
%ADD30R,1.460000X1.050000*%
%ADD31R,2.200000X2.900000*%
%ADD32R,1.500000X1.500000*%
%ADD33R,2.100000X2.100000*%
%ADD34C,1.924000*%
G04 APERTURE END LIST*
D10*
D11*
X143022000Y-78232000D03*
X145522000Y-78232000D03*
D12*
X89916000Y-67564000D03*
X89916000Y-65064000D03*
X97536000Y-67564000D03*
X97536000Y-65064000D03*
D11*
X143022000Y-83312000D03*
X145522000Y-83312000D03*
D12*
X88900000Y-37318000D03*
X88900000Y-34818000D03*
D11*
X147086000Y-56388000D03*
X149586000Y-56388000D03*
X143022000Y-88392000D03*
X145522000Y-88392000D03*
X137942000Y-56388000D03*
X140442000Y-56388000D03*
X82062000Y-46736000D03*
X84562000Y-46736000D03*
X118598000Y-50292000D03*
X116098000Y-50292000D03*
X96754000Y-50292000D03*
X94254000Y-50292000D03*
X118598000Y-52832000D03*
X116098000Y-52832000D03*
X96754000Y-52832000D03*
X94254000Y-52832000D03*
X118598000Y-47752000D03*
X116098000Y-47752000D03*
X96754000Y-47752000D03*
X94254000Y-47752000D03*
D12*
X86868000Y-54122000D03*
X86868000Y-56622000D03*
D11*
X82062000Y-65532000D03*
X84562000Y-65532000D03*
D13*
X137542000Y-52376000D03*
D14*
X137542000Y-46176000D03*
X140842000Y-46176000D03*
X140842000Y-52376000D03*
D13*
X146686000Y-52376000D03*
D14*
X146686000Y-46176000D03*
X149986000Y-46176000D03*
X149986000Y-52376000D03*
D15*
X76200000Y-57070000D03*
X76200000Y-59770000D03*
D16*
X143858000Y-39116000D03*
X136558000Y-39116000D03*
X136558000Y-32416000D03*
X143858000Y-32416000D03*
X143858000Y-35616000D03*
X136558000Y-35616000D03*
D17*
X140208000Y-39116000D03*
X140208000Y-33116000D03*
D18*
X116840000Y-35560000D03*
D19*
X121920000Y-35560000D03*
X127000000Y-35560000D03*
D18*
X96520000Y-35560000D03*
D19*
X101600000Y-35560000D03*
X106680000Y-35560000D03*
D20*
X82804000Y-34544000D03*
D21*
X82804000Y-40644000D03*
D20*
X77724000Y-36834000D03*
D22*
X81788000Y-56686000D03*
X81788000Y-62186000D03*
D15*
X92456000Y-67564000D03*
X92456000Y-64864000D03*
X94996000Y-67564000D03*
X94996000Y-64864000D03*
X121412000Y-44530000D03*
X121412000Y-41830000D03*
X100076000Y-45038000D03*
X100076000Y-42338000D03*
X121412000Y-50118000D03*
X121412000Y-47418000D03*
X100076000Y-50626000D03*
X100076000Y-47926000D03*
X114300000Y-59610000D03*
X114300000Y-62310000D03*
X108204000Y-59610000D03*
X108204000Y-62310000D03*
D23*
X149018000Y-39116000D03*
X151718000Y-39116000D03*
X149018000Y-35560000D03*
X151718000Y-35560000D03*
D15*
X110236000Y-59610000D03*
X110236000Y-62310000D03*
X112268000Y-59610000D03*
X112268000Y-62310000D03*
X118364000Y-59262000D03*
X118364000Y-56562000D03*
X100076000Y-56722000D03*
X100076000Y-54022000D03*
D23*
X145622000Y-75692000D03*
X142922000Y-75692000D03*
X145622000Y-80772000D03*
X142922000Y-80772000D03*
X145622000Y-85852000D03*
X142922000Y-85852000D03*
D15*
X118872000Y-42004000D03*
X118872000Y-44704000D03*
X115824000Y-42004000D03*
X115824000Y-44704000D03*
X97028000Y-42338000D03*
X97028000Y-45038000D03*
X93980000Y-42338000D03*
X93980000Y-45038000D03*
X89916000Y-61802000D03*
X89916000Y-59102000D03*
X89916000Y-56722000D03*
X89916000Y-54022000D03*
X87884000Y-42846000D03*
X87884000Y-45546000D03*
X87884000Y-48434000D03*
X87884000Y-51134000D03*
X76200000Y-65358000D03*
X76200000Y-62658000D03*
D17*
X129072000Y-88272000D03*
X131572000Y-88272000D03*
X134072000Y-88272000D03*
X134072000Y-73772000D03*
X129072000Y-73772000D03*
D24*
X125972000Y-80772000D03*
X136772000Y-80772000D03*
D25*
X79248000Y-86360000D03*
D26*
X107188000Y-71120000D03*
X81788000Y-86360000D03*
X104648000Y-71120000D03*
X84328000Y-86360000D03*
X102108000Y-71120000D03*
X86868000Y-86360000D03*
X99568000Y-71120000D03*
X89408000Y-86360000D03*
X97028000Y-71120000D03*
X91948000Y-86360000D03*
X94488000Y-71120000D03*
X94488000Y-86360000D03*
X91948000Y-71120000D03*
X97028000Y-86360000D03*
X89408000Y-71120000D03*
X99568000Y-86360000D03*
X86868000Y-71120000D03*
X102108000Y-86360000D03*
X84328000Y-71120000D03*
X104648000Y-86360000D03*
X81788000Y-71120000D03*
X107188000Y-86360000D03*
X79248000Y-71120000D03*
D27*
X129042000Y-44238000D03*
X128192000Y-44238000D03*
X127342000Y-44238000D03*
D28*
X126492000Y-51308000D03*
D27*
X125642000Y-44238000D03*
X124792000Y-44238000D03*
X123942000Y-44238000D03*
X108722000Y-42714000D03*
X107872000Y-42714000D03*
X107022000Y-42714000D03*
D28*
X106172000Y-49784000D03*
D27*
X105322000Y-42714000D03*
X104472000Y-42714000D03*
X103622000Y-42714000D03*
D29*
X113952000Y-56880000D03*
X113952000Y-56380000D03*
X113952000Y-55880000D03*
X113952000Y-55380000D03*
X113952000Y-54880000D03*
X108552000Y-54880000D03*
X108552000Y-55380000D03*
X108552000Y-55880000D03*
X108552000Y-56380000D03*
X108552000Y-56880000D03*
D30*
X84496000Y-52192000D03*
X84496000Y-51242000D03*
X84496000Y-50292000D03*
X82296000Y-50292000D03*
X82296000Y-52192000D03*
X82296000Y-51242000D03*
D31*
X78232000Y-53308000D03*
X78232000Y-49308000D03*
D32*
X86868000Y-59052000D03*
X86868000Y-61852000D03*
X151768000Y-32512000D03*
X148968000Y-32512000D03*
X90424000Y-48384000D03*
X90424000Y-51184000D03*
D12*
X112268000Y-52558000D03*
X112268000Y-50058000D03*
D33*
X112268000Y-86360000D03*
X147320000Y-42164000D03*
D34*
X150876000Y-60960000D03*
X150876000Y-63500000D03*
X150876000Y-66040000D03*
X150876000Y-68580000D03*
M02*
