M48
;DRILL file {KiCad 4.0.7} date 07/05/18 11:54:11
;FORMAT={-:-/ absolute / inch / decimal}
FMAT,2
INCH,TZ
T1C0.016
T2C0.030
T3C0.031
T4C0.039
T5C0.040
T6C0.055
%
G90
G05
M72
T1
X3.Y-2.2
X3.06Y-1.7
X3.06Y-1.86
X3.26Y-1.76
X3.3Y-1.76
X3.32Y-1.78
X3.38Y-2.58
X3.46Y-2.68
X3.5Y-2.56
X3.54Y-2.08
X3.86Y-3.2
X3.88Y-2.5793
X3.88Y-3.16
X3.94Y-1.62
X3.94Y-2.04
X3.96Y-3.2
X4.Y-2.12
X4.Y-2.26
X4.Y-3.16
X4.04Y-2.12
X4.04Y-2.26
X4.1745Y-2.5721
X4.22Y-2.66
X4.22Y-3.28
X4.28Y-3.24
X4.3Y-3.2
X4.34Y-1.74
X4.34Y-1.78
X4.34Y-2.02
X4.34Y-3.16
X4.4Y-3.24
X4.4Y-3.28
X4.4182Y-2.7772
X4.42Y-1.92
X4.42Y-2.9213
X4.44Y-3.2
X4.52Y-3.16
X4.54Y-2.52
X4.54Y-3.56
X4.56Y-2.84
X4.7466Y-2.8542
X4.78Y-1.6
X4.78Y-2.02
X5.14Y-1.8
X5.18Y-1.84
X5.18Y-2.14
X5.28Y-1.24
X5.58Y-1.92
X5.58Y-2.22
X5.7Y-1.2
X5.78Y-3.08
X5.78Y-3.28
X5.78Y-3.48
X5.9Y-1.92
X5.94Y-2.22
T2
X5.94Y-2.4
X5.94Y-2.5
X5.94Y-2.6
X5.94Y-2.7
T3
X3.12Y-2.8
X3.12Y-3.4
X3.22Y-2.8
X3.22Y-3.4
X3.32Y-2.8
X3.32Y-3.4
X3.42Y-2.8
X3.42Y-3.4
X3.52Y-2.8
X3.52Y-3.4
X3.62Y-2.8
X3.62Y-3.4
X3.72Y-2.8
X3.72Y-3.4
X3.82Y-2.8
X3.82Y-3.4
X3.92Y-2.8
X3.92Y-3.4
X4.02Y-2.8
X4.02Y-3.4
X4.12Y-2.8
X4.12Y-3.4
X4.22Y-2.8
X4.22Y-3.4
T4
X4.42Y-3.4
X5.0816Y-2.9044
X5.0816Y-3.4753
X5.18Y-3.4753
X5.2784Y-2.9044
X5.2784Y-3.4753
X5.8Y-1.66
T6
X3.8Y-1.4
X4.Y-1.4
X4.2Y-1.4
X4.6Y-1.4
X4.8Y-1.4
X5.Y-1.4
T5
X3.06Y-1.4202G85X3.06Y-1.4801
G05
X3.2899Y-1.36G85X3.2301Y-1.36
G05
X3.2899Y-1.6002G85X3.2301Y-1.6002
G05
T0
M30
