G04 #@! TF.FileFunction,Copper,L1,Top,Signal*
%FSLAX46Y46*%
G04 Gerber Fmt 4.6, Leading zero omitted, Abs format (unit mm)*
G04 Created by KiCad (PCBNEW 4.0.7) date 07/05/18 11:54:09*
%MOMM*%
%LPD*%
G01*
G04 APERTURE LIST*
%ADD10C,0.100000*%
%ADD11C,0.300000*%
%ADD12R,1.500000X1.250000*%
%ADD13R,1.250000X1.500000*%
%ADD14R,1.500000X3.200000*%
%ADD15R,1.400000X3.200000*%
%ADD16R,1.300000X1.500000*%
%ADD17R,3.500000X2.000000*%
%ADD18C,2.000000*%
%ADD19R,2.080000X3.600000*%
%ADD20O,2.080000X3.600000*%
%ADD21C,4.800000*%
%ADD22R,4.800000X4.800000*%
%ADD23R,2.400000X1.500000*%
%ADD24R,1.500000X1.300000*%
%ADD25O,3.000000X3.800000*%
%ADD26R,1.600000X2.400000*%
%ADD27O,1.600000X2.400000*%
%ADD28R,0.650000X2.500000*%
%ADD29R,6.300000X6.600000*%
%ADD30R,2.450000X0.300000*%
%ADD31R,1.060000X0.650000*%
%ADD32R,1.800000X2.500000*%
%ADD33R,1.100000X1.100000*%
%ADD34R,1.700000X1.700000*%
%ADD35C,1.524000*%
%ADD36C,0.600000*%
%ADD37C,0.250000*%
%ADD38C,0.500000*%
%ADD39C,0.650000*%
%ADD40C,2.000000*%
%ADD41C,1.000000*%
%ADD42C,0.600000*%
G04 APERTURE END LIST*
D10*
D11*
X130322000Y-79926571D02*
X130322000Y-78426571D01*
X130893428Y-78426571D01*
X131036286Y-78498000D01*
X131107714Y-78569429D01*
X131179143Y-78712286D01*
X131179143Y-78926571D01*
X131107714Y-79069429D01*
X131036286Y-79140857D01*
X130893428Y-79212286D01*
X130322000Y-79212286D01*
X131679143Y-78426571D02*
X132036286Y-79926571D01*
X132322000Y-78855143D01*
X132607714Y-79926571D01*
X132964857Y-78426571D01*
D12*
X143022000Y-78232000D03*
X145522000Y-78232000D03*
D13*
X89916000Y-67564000D03*
X89916000Y-65064000D03*
X97536000Y-67564000D03*
X97536000Y-65064000D03*
D12*
X143022000Y-83312000D03*
X145522000Y-83312000D03*
D13*
X88900000Y-37318000D03*
X88900000Y-34818000D03*
D12*
X147086000Y-56388000D03*
X149586000Y-56388000D03*
X143022000Y-88392000D03*
X145522000Y-88392000D03*
X137942000Y-56388000D03*
X140442000Y-56388000D03*
X82062000Y-46736000D03*
X84562000Y-46736000D03*
X118598000Y-50292000D03*
X116098000Y-50292000D03*
X96754000Y-50292000D03*
X94254000Y-50292000D03*
X118598000Y-52832000D03*
X116098000Y-52832000D03*
X96754000Y-52832000D03*
X94254000Y-52832000D03*
X118598000Y-47752000D03*
X116098000Y-47752000D03*
X96754000Y-47752000D03*
X94254000Y-47752000D03*
D13*
X86868000Y-54122000D03*
X86868000Y-56622000D03*
D12*
X82062000Y-65532000D03*
X84562000Y-65532000D03*
D14*
X137542000Y-52376000D03*
D15*
X137542000Y-46176000D03*
X140842000Y-46176000D03*
X140842000Y-52376000D03*
D14*
X146686000Y-52376000D03*
D15*
X146686000Y-46176000D03*
X149986000Y-46176000D03*
X149986000Y-52376000D03*
D16*
X76200000Y-57070000D03*
X76200000Y-59770000D03*
D17*
X143858000Y-39116000D03*
X136558000Y-39116000D03*
X136558000Y-32416000D03*
X143858000Y-32416000D03*
X143858000Y-35616000D03*
X136558000Y-35616000D03*
D18*
X140208000Y-39116000D03*
X140208000Y-33116000D03*
D19*
X116840000Y-35560000D03*
D20*
X121920000Y-35560000D03*
X127000000Y-35560000D03*
D19*
X96520000Y-35560000D03*
D20*
X101600000Y-35560000D03*
X106680000Y-35560000D03*
D21*
X82804000Y-34544000D03*
D22*
X82804000Y-40644000D03*
D21*
X77724000Y-36834000D03*
D23*
X81788000Y-56686000D03*
X81788000Y-62186000D03*
D16*
X92456000Y-67564000D03*
X92456000Y-64864000D03*
X94996000Y-67564000D03*
X94996000Y-64864000D03*
X121412000Y-44530000D03*
X121412000Y-41830000D03*
X100076000Y-45038000D03*
X100076000Y-42338000D03*
X121412000Y-50118000D03*
X121412000Y-47418000D03*
X100076000Y-50626000D03*
X100076000Y-47926000D03*
X114300000Y-59610000D03*
X114300000Y-62310000D03*
X108204000Y-59610000D03*
X108204000Y-62310000D03*
D24*
X149018000Y-39116000D03*
X151718000Y-39116000D03*
X149018000Y-35560000D03*
X151718000Y-35560000D03*
D16*
X110236000Y-59610000D03*
X110236000Y-62310000D03*
X112268000Y-59610000D03*
X112268000Y-62310000D03*
X118364000Y-59262000D03*
X118364000Y-56562000D03*
X100076000Y-56722000D03*
X100076000Y-54022000D03*
D24*
X145622000Y-75692000D03*
X142922000Y-75692000D03*
X145622000Y-80772000D03*
X142922000Y-80772000D03*
X145622000Y-85852000D03*
X142922000Y-85852000D03*
D16*
X118872000Y-42004000D03*
X118872000Y-44704000D03*
X115824000Y-42004000D03*
X115824000Y-44704000D03*
X97028000Y-42338000D03*
X97028000Y-45038000D03*
X93980000Y-42338000D03*
X93980000Y-45038000D03*
X89916000Y-61802000D03*
X89916000Y-59102000D03*
X89916000Y-56722000D03*
X89916000Y-54022000D03*
X87884000Y-42846000D03*
X87884000Y-45546000D03*
X87884000Y-48434000D03*
X87884000Y-51134000D03*
X76200000Y-65358000D03*
X76200000Y-62658000D03*
D18*
X129072000Y-88272000D03*
X131572000Y-88272000D03*
X134072000Y-88272000D03*
X134072000Y-73772000D03*
X129072000Y-73772000D03*
D25*
X125972000Y-80772000D03*
X136772000Y-80772000D03*
D26*
X79248000Y-86360000D03*
D27*
X107188000Y-71120000D03*
X81788000Y-86360000D03*
X104648000Y-71120000D03*
X84328000Y-86360000D03*
X102108000Y-71120000D03*
X86868000Y-86360000D03*
X99568000Y-71120000D03*
X89408000Y-86360000D03*
X97028000Y-71120000D03*
X91948000Y-86360000D03*
X94488000Y-71120000D03*
X94488000Y-86360000D03*
X91948000Y-71120000D03*
X97028000Y-86360000D03*
X89408000Y-71120000D03*
X99568000Y-86360000D03*
X86868000Y-71120000D03*
X102108000Y-86360000D03*
X84328000Y-71120000D03*
X104648000Y-86360000D03*
X81788000Y-71120000D03*
X107188000Y-86360000D03*
X79248000Y-71120000D03*
D28*
X129042000Y-44238000D03*
X128192000Y-44238000D03*
X127342000Y-44238000D03*
D29*
X126492000Y-51308000D03*
D28*
X125642000Y-44238000D03*
X124792000Y-44238000D03*
X123942000Y-44238000D03*
X108722000Y-42714000D03*
X107872000Y-42714000D03*
X107022000Y-42714000D03*
D29*
X106172000Y-49784000D03*
D28*
X105322000Y-42714000D03*
X104472000Y-42714000D03*
X103622000Y-42714000D03*
D30*
X113952000Y-56880000D03*
X113952000Y-56380000D03*
X113952000Y-55880000D03*
X113952000Y-55380000D03*
X113952000Y-54880000D03*
X108552000Y-54880000D03*
X108552000Y-55380000D03*
X108552000Y-55880000D03*
X108552000Y-56380000D03*
X108552000Y-56880000D03*
D31*
X84496000Y-52192000D03*
X84496000Y-51242000D03*
X84496000Y-50292000D03*
X82296000Y-50292000D03*
X82296000Y-52192000D03*
X82296000Y-51242000D03*
D32*
X78232000Y-53308000D03*
X78232000Y-49308000D03*
D33*
X86868000Y-59052000D03*
X86868000Y-61852000D03*
X151768000Y-32512000D03*
X148968000Y-32512000D03*
X90424000Y-48384000D03*
X90424000Y-51184000D03*
D13*
X112268000Y-52558000D03*
X112268000Y-50058000D03*
D34*
X112268000Y-86360000D03*
X147320000Y-42164000D03*
D35*
X150876000Y-60960000D03*
X150876000Y-63500000D03*
X150876000Y-66040000D03*
X150876000Y-68580000D03*
D36*
X146812000Y-88392000D03*
X146812000Y-83312000D03*
X146812000Y-78232000D03*
X141732000Y-48768000D03*
X141732000Y-56388000D03*
X150876000Y-56388000D03*
X149860000Y-48768000D03*
X76200000Y-55880000D03*
X98552000Y-65513991D03*
X88900000Y-65024000D03*
X144780000Y-30480000D03*
X134112000Y-31496000D03*
X130556000Y-45720000D03*
X121412000Y-40640000D03*
X121412000Y-51308000D03*
X112268000Y-48768000D03*
X110236000Y-44196000D03*
X100076000Y-51816000D03*
X100076000Y-41148000D03*
X85852000Y-65532000D03*
X89916000Y-52832000D03*
X77724000Y-47244000D03*
X82804000Y-44704000D03*
X83820000Y-44704000D03*
X77724000Y-43180000D03*
X84328000Y-45212000D03*
X107188000Y-83312000D03*
X111760000Y-83312000D03*
X108712000Y-82296000D03*
X111760000Y-82296000D03*
X120563010Y-72496642D03*
X115824000Y-72136000D03*
X87884000Y-68072000D03*
X112268000Y-74201358D03*
X112221377Y-70539918D03*
X115316000Y-90424000D03*
X106032200Y-65330810D03*
X115316000Y-64008000D03*
X101600000Y-57404000D03*
X101600000Y-53848000D03*
X98044000Y-81280000D03*
X100584000Y-81280000D03*
X109220000Y-81280000D03*
X112776000Y-81280000D03*
X98552000Y-80264000D03*
X101600000Y-80264000D03*
X110236000Y-80264000D03*
X114808000Y-80264000D03*
X110236000Y-51308000D03*
X107188000Y-67564000D03*
X102616000Y-57404000D03*
X102616000Y-53848000D03*
X110236000Y-45212000D03*
X131572000Y-54356000D03*
X131572000Y-46736000D03*
D37*
X145522000Y-88392000D02*
X146812000Y-88392000D01*
X145522000Y-83312000D02*
X146812000Y-83312000D01*
X145522000Y-78232000D02*
X146812000Y-78232000D01*
X141732000Y-48768000D02*
X141732000Y-47066000D01*
X141732000Y-47066000D02*
X140842000Y-46176000D01*
X140442000Y-56388000D02*
X141732000Y-56388000D01*
X150876000Y-56388000D02*
X149586000Y-56388000D01*
X149986000Y-46176000D02*
X149986000Y-48642000D01*
X149986000Y-48642000D02*
X149860000Y-48768000D01*
X76200000Y-57070000D02*
X76200000Y-55880000D01*
X98552000Y-65205000D02*
X98552000Y-65513991D01*
X98411000Y-65064000D02*
X98552000Y-65205000D01*
X97536000Y-65064000D02*
X98411000Y-65064000D01*
X89916000Y-65064000D02*
X88940000Y-65064000D01*
X88940000Y-65064000D02*
X88900000Y-65024000D01*
X90424000Y-51184000D02*
X90424000Y-52324000D01*
X90424000Y-52324000D02*
X89916000Y-52832000D01*
X87884000Y-51134000D02*
X90374000Y-51134000D01*
X90374000Y-51134000D02*
X90424000Y-51184000D01*
X143858000Y-32416000D02*
X143858000Y-31402000D01*
X143858000Y-31402000D02*
X144780000Y-30480000D01*
X136558000Y-32416000D02*
X134558000Y-32416000D01*
X134558000Y-32416000D02*
X134112000Y-31970000D01*
X134112000Y-31970000D02*
X134112000Y-31496000D01*
X128682000Y-46228000D02*
X129540000Y-46228000D01*
X129540000Y-46228000D02*
X130048000Y-46228000D01*
X130048000Y-46228000D02*
X130556000Y-45720000D01*
X121412000Y-41830000D02*
X121412000Y-40640000D01*
X121412000Y-50118000D02*
X121412000Y-51308000D01*
X112268000Y-50058000D02*
X112268000Y-48768000D01*
X108362000Y-44704000D02*
X109220000Y-44704000D01*
X109220000Y-44704000D02*
X109728000Y-44704000D01*
X109728000Y-44704000D02*
X110236000Y-44196000D01*
X100076000Y-50626000D02*
X100076000Y-51816000D01*
X100076000Y-42338000D02*
X100076000Y-41148000D01*
D38*
X84562000Y-65532000D02*
X85852000Y-65532000D01*
X89916000Y-54022000D02*
X89916000Y-52832000D01*
X77724000Y-36834000D02*
X77724000Y-47244000D01*
X78232000Y-49308000D02*
X78232000Y-47752000D01*
X78232000Y-47752000D02*
X77724000Y-47244000D01*
X81788000Y-71120000D02*
X81788000Y-70720000D01*
X81788000Y-70720000D02*
X84562000Y-67946000D01*
X84562000Y-67946000D02*
X84562000Y-65532000D01*
X83820000Y-44704000D02*
X82804000Y-44704000D01*
X84328000Y-45212000D02*
X83820000Y-44704000D01*
X84562000Y-46736000D02*
X84562000Y-45446000D01*
X84562000Y-45446000D02*
X84328000Y-45212000D01*
D37*
X83312000Y-50838000D02*
X83312000Y-49276000D01*
D38*
X83312000Y-48768000D02*
X83312000Y-49276000D01*
X83312000Y-48768000D02*
X83405000Y-48768000D01*
X83405000Y-48768000D02*
X84562000Y-47611000D01*
X84562000Y-46736000D02*
X84562000Y-47611000D01*
D37*
X84496000Y-51242000D02*
X83716000Y-51242000D01*
X83716000Y-51242000D02*
X83312000Y-50838000D01*
D39*
X88900000Y-34818000D02*
X83078000Y-34818000D01*
X83078000Y-34818000D02*
X82804000Y-34544000D01*
D37*
X112268000Y-50058000D02*
X113143000Y-50058000D01*
X113143000Y-50058000D02*
X113792000Y-50707000D01*
X113792000Y-50707000D02*
X113792000Y-53340000D01*
X113792000Y-53340000D02*
X113284000Y-53848000D01*
X113284000Y-53848000D02*
X112268000Y-53848000D01*
X112268000Y-53848000D02*
X111760000Y-54356000D01*
X112268000Y-55880000D02*
X113952000Y-55880000D01*
X111760000Y-54356000D02*
X111760000Y-55372000D01*
X111760000Y-55372000D02*
X112268000Y-55880000D01*
X136558000Y-32416000D02*
X136558000Y-31166000D01*
X136558000Y-31166000D02*
X136736000Y-30988000D01*
X136736000Y-30988000D02*
X143764000Y-30988000D01*
X143764000Y-30988000D02*
X143858000Y-31082000D01*
X143858000Y-31082000D02*
X143858000Y-32416000D01*
X148968000Y-32512000D02*
X143954000Y-32512000D01*
X143954000Y-32512000D02*
X143858000Y-32416000D01*
X93980000Y-42338000D02*
X93980000Y-36810000D01*
X93980000Y-36810000D02*
X95230000Y-35560000D01*
X95230000Y-35560000D02*
X96520000Y-35560000D01*
X116840000Y-35560000D02*
X116840000Y-41888000D01*
X116724000Y-42004000D02*
X115824000Y-42004000D01*
X116840000Y-41888000D02*
X116724000Y-42004000D01*
X128192000Y-44238000D02*
X128192000Y-45738000D01*
X128192000Y-45738000D02*
X128682000Y-46228000D01*
X107872000Y-42714000D02*
X107872000Y-44214000D01*
X107872000Y-44214000D02*
X108362000Y-44704000D01*
X87208999Y-68520999D02*
X89408000Y-70720000D01*
X87208999Y-64483879D02*
X87208999Y-68520999D01*
X88692888Y-62999990D02*
X87208999Y-64483879D01*
X89408000Y-70720000D02*
X89408000Y-71120000D01*
X91432011Y-62999989D02*
X88692888Y-62999990D01*
X91948000Y-62484000D02*
X91432011Y-62999989D01*
X91948000Y-50708000D02*
X91948000Y-62484000D01*
X90424000Y-49184000D02*
X91948000Y-50708000D01*
X90424000Y-48384000D02*
X90424000Y-49184000D01*
X87884000Y-48434000D02*
X87884000Y-45546000D01*
X90424000Y-48384000D02*
X87934000Y-48384000D01*
X87934000Y-48384000D02*
X87884000Y-48434000D01*
X90374000Y-48434000D02*
X90424000Y-48384000D01*
X103124000Y-83312000D02*
X102108000Y-84328000D01*
X102108000Y-84328000D02*
X102108000Y-86360000D01*
X107188000Y-83312000D02*
X103124000Y-83312000D01*
X121920000Y-89916000D02*
X115316000Y-83312000D01*
X115316000Y-83312000D02*
X111760000Y-83312000D01*
X132080000Y-89916000D02*
X121920000Y-89916000D01*
X132724001Y-89271999D02*
X132080000Y-89916000D01*
X133072001Y-89271999D02*
X132724001Y-89271999D01*
X134072000Y-88272000D02*
X133072001Y-89271999D01*
X143022000Y-88392000D02*
X143022000Y-85952000D01*
X143022000Y-85952000D02*
X142922000Y-85852000D01*
X134072000Y-88272000D02*
X142902000Y-88272000D01*
X142902000Y-88272000D02*
X143022000Y-88392000D01*
X101092000Y-82296000D02*
X99568000Y-83820000D01*
X99568000Y-83820000D02*
X99568000Y-86360000D01*
X108712000Y-82296000D02*
X101092000Y-82296000D01*
X121292000Y-88272000D02*
X115316000Y-82296000D01*
X115316000Y-82296000D02*
X111760000Y-82296000D01*
X129072000Y-88272000D02*
X121292000Y-88272000D01*
X142922000Y-80772000D02*
X142922000Y-83212000D01*
X142922000Y-83212000D02*
X143022000Y-83312000D01*
X129072000Y-88272000D02*
X134032000Y-83312000D01*
X134032000Y-83312000D02*
X143022000Y-83312000D01*
X120863009Y-72196643D02*
X120563010Y-72496642D01*
X132496643Y-72196643D02*
X120863009Y-72196643D01*
X134072000Y-73772000D02*
X132496643Y-72196643D01*
X112776000Y-72136000D02*
X115824000Y-72136000D01*
X111760000Y-73152000D02*
X112776000Y-72136000D01*
X110236000Y-74676000D02*
X111760000Y-73152000D01*
X99060000Y-74676000D02*
X110236000Y-74676000D01*
X97028000Y-72644000D02*
X99060000Y-74676000D01*
X97028000Y-71120000D02*
X97028000Y-72644000D01*
X134072000Y-73772000D02*
X141902000Y-73772000D01*
X141902000Y-73772000D02*
X142922000Y-74792000D01*
X142922000Y-74792000D02*
X142922000Y-75692000D01*
X143022000Y-78232000D02*
X143022000Y-75792000D01*
X143022000Y-75792000D02*
X142922000Y-75692000D01*
X146819990Y-90416010D02*
X147828000Y-89408000D01*
X121045876Y-89748998D02*
X121712889Y-90416011D01*
X114991998Y-89748998D02*
X121045876Y-89748998D01*
X114483998Y-90256998D02*
X114991998Y-89748998D01*
X121712889Y-90416011D02*
X146819990Y-90416010D01*
X77048998Y-90256998D02*
X114483998Y-90256998D01*
X75692000Y-88900000D02*
X77048998Y-90256998D01*
X77724000Y-74168000D02*
X75692000Y-76200000D01*
X147828000Y-89408000D02*
X147828000Y-84646000D01*
X75692000Y-76200000D02*
X75692000Y-88900000D01*
X87884000Y-64516000D02*
X87884000Y-68072000D01*
X88900000Y-63500000D02*
X87884000Y-64516000D01*
X94298000Y-63500000D02*
X88900000Y-63500000D01*
X100076000Y-57722000D02*
X94298000Y-63500000D01*
X100076000Y-56722000D02*
X100076000Y-57722000D01*
X150876000Y-63500000D02*
X152400000Y-65024000D01*
X152400000Y-65024000D02*
X152400000Y-72136000D01*
X152400000Y-72136000D02*
X147828000Y-76708000D01*
X137776000Y-50292000D02*
X143602000Y-50292000D01*
X143602000Y-50292000D02*
X145686000Y-52376000D01*
X145686000Y-52376000D02*
X146686000Y-52376000D01*
X137542000Y-52376000D02*
X137542000Y-50526000D01*
X137542000Y-50526000D02*
X137776000Y-50292000D01*
X147320000Y-57497000D02*
X147320000Y-59944000D01*
X147320000Y-59944000D02*
X150876000Y-63500000D01*
X147086000Y-56388000D02*
X147086000Y-57263000D01*
X147086000Y-57263000D02*
X147320000Y-57497000D01*
X147828000Y-84646000D02*
X147828000Y-80772000D01*
X147828000Y-80772000D02*
X147828000Y-76708000D01*
X145622000Y-80772000D02*
X147828000Y-80772000D01*
X145622000Y-85852000D02*
X146622000Y-85852000D01*
X146622000Y-85852000D02*
X147828000Y-84646000D01*
X147828000Y-76708000D02*
X146812000Y-75692000D01*
X146812000Y-75692000D02*
X145622000Y-75692000D01*
X147086000Y-56388000D02*
X147086000Y-54864000D01*
X147086000Y-54864000D02*
X147086000Y-52776000D01*
X150876000Y-54864000D02*
X147086000Y-54864000D01*
X151892000Y-53848000D02*
X150876000Y-54864000D01*
X151892000Y-42890000D02*
X151892000Y-53848000D01*
X149018000Y-39116000D02*
X149018000Y-40016000D01*
X149018000Y-40016000D02*
X151892000Y-42890000D01*
X147086000Y-52776000D02*
X146686000Y-52376000D01*
X137942000Y-56388000D02*
X137942000Y-52776000D01*
X137942000Y-52776000D02*
X137542000Y-52376000D01*
X77724000Y-74168000D02*
X84220000Y-74168000D01*
X84220000Y-74168000D02*
X86868000Y-71520000D01*
X86868000Y-71520000D02*
X86868000Y-71120000D01*
X76200000Y-72644000D02*
X77724000Y-74168000D01*
X76200000Y-65358000D02*
X76200000Y-72644000D01*
X107077000Y-55880000D02*
X106680000Y-55880000D01*
X106680000Y-55880000D02*
X102108000Y-55880000D01*
X118364000Y-59262000D02*
X117464000Y-59262000D01*
X117464000Y-59262000D02*
X115766000Y-60960000D01*
X115766000Y-60960000D02*
X106680000Y-60960000D01*
X106680000Y-60960000D02*
X106172000Y-60452000D01*
X106172000Y-60452000D02*
X106172000Y-56388000D01*
X106172000Y-56388000D02*
X106680000Y-55880000D01*
X112268000Y-52558000D02*
X111393000Y-52558000D01*
X111393000Y-52558000D02*
X110744000Y-53207000D01*
X110027000Y-55880000D02*
X108552000Y-55880000D01*
X110744000Y-53207000D02*
X110744000Y-55163000D01*
X110744000Y-55163000D02*
X110027000Y-55880000D01*
X100076000Y-56722000D02*
X100976000Y-56722000D01*
X100976000Y-56722000D02*
X101818000Y-55880000D01*
X101818000Y-55880000D02*
X102108000Y-55880000D01*
X108552000Y-55880000D02*
X107077000Y-55880000D01*
X136558000Y-39116000D02*
X136558000Y-37866000D01*
X136832000Y-37592000D02*
X143584000Y-37592000D01*
X136558000Y-37866000D02*
X136832000Y-37592000D01*
X143584000Y-37592000D02*
X143858000Y-37866000D01*
X143858000Y-37866000D02*
X143858000Y-39116000D01*
X149018000Y-39116000D02*
X148018000Y-39116000D01*
X148018000Y-39116000D02*
X143858000Y-39116000D01*
D38*
X82804000Y-40644000D02*
X82062000Y-41386000D01*
X82062000Y-41386000D02*
X82062000Y-43922000D01*
X82062000Y-43922000D02*
X81788000Y-44196000D01*
X82062000Y-45720000D02*
X82062000Y-46736000D01*
X81788000Y-44196000D02*
X81788000Y-45446000D01*
X81788000Y-45446000D02*
X82062000Y-45720000D01*
D37*
X87884000Y-42846000D02*
X87884000Y-41846000D01*
X87884000Y-41846000D02*
X86682000Y-40644000D01*
X86682000Y-40644000D02*
X85454000Y-40644000D01*
X85454000Y-40644000D02*
X82804000Y-40644000D01*
D38*
X81280000Y-51006000D02*
X81280000Y-50292000D01*
X80772000Y-49784000D02*
X81280000Y-50292000D01*
X80772000Y-48901000D02*
X80772000Y-49784000D01*
X80772000Y-48901000D02*
X82062000Y-47611000D01*
X82062000Y-46736000D02*
X82062000Y-47611000D01*
D37*
X82296000Y-51242000D02*
X81516000Y-51242000D01*
X81516000Y-51242000D02*
X81280000Y-51006000D01*
X81280000Y-50292000D02*
X82296000Y-50292000D01*
D39*
X88900000Y-37318000D02*
X86130000Y-37318000D01*
X86130000Y-37318000D02*
X82804000Y-40644000D01*
D40*
X82804000Y-40644000D02*
X89404000Y-40644000D01*
X91948000Y-34036000D02*
X94996000Y-30988000D01*
X91948000Y-38100000D02*
X91948000Y-34036000D01*
X94996000Y-30988000D02*
X109728000Y-30988000D01*
X89404000Y-40644000D02*
X91948000Y-38100000D01*
D39*
X84098000Y-39350000D02*
X82804000Y-40644000D01*
D40*
X111760000Y-30988000D02*
X112776000Y-30988000D01*
X112776000Y-30988000D02*
X130556000Y-30988000D01*
X130642000Y-51308000D02*
X133096000Y-48854000D01*
X126492000Y-51308000D02*
X130642000Y-51308000D01*
X133096000Y-48854000D02*
X133096000Y-34036000D01*
X133096000Y-33528000D02*
X133096000Y-34036000D01*
X130556000Y-30988000D02*
X133096000Y-33528000D01*
D41*
X111760000Y-32512000D02*
X111760000Y-32004000D01*
X111760000Y-32004000D02*
X112776000Y-30988000D01*
D40*
X109728000Y-30988000D02*
X111760000Y-30988000D01*
D41*
X111760000Y-32512000D02*
X111760000Y-30988000D01*
D40*
X111760000Y-46228000D02*
X111760000Y-32512000D01*
X108204000Y-49784000D02*
X111760000Y-46228000D01*
D41*
X109728000Y-30988000D02*
X110236000Y-30988000D01*
D40*
X110236000Y-30988000D02*
X111760000Y-32512000D01*
D41*
X106172000Y-49784000D02*
X108204000Y-49784000D01*
D37*
X102216000Y-74168000D02*
X99568000Y-71520000D01*
X112783989Y-71112011D02*
X109728000Y-74168000D01*
X112783989Y-70912889D02*
X112783989Y-71112011D01*
X114300000Y-69396878D02*
X112783989Y-70912889D01*
X99568000Y-71520000D02*
X99568000Y-71120000D01*
X109728000Y-74168000D02*
X102216000Y-74168000D01*
X114300000Y-62310000D02*
X114300000Y-69396878D01*
X111252000Y-75217358D02*
X111968001Y-74501357D01*
X111968001Y-74501357D02*
X112268000Y-74201358D01*
X105230642Y-75217358D02*
X111252000Y-75217358D01*
X94488000Y-85960000D02*
X105230642Y-75217358D01*
X94488000Y-86360000D02*
X94488000Y-85960000D01*
X112268000Y-70493295D02*
X112221377Y-70539918D01*
X112268000Y-62310000D02*
X112268000Y-70493295D01*
X104648000Y-70720000D02*
X104648000Y-71120000D01*
X105698000Y-69670000D02*
X104648000Y-70720000D01*
X108204000Y-67564000D02*
X106098000Y-69670000D01*
X108204000Y-62310000D02*
X108204000Y-67564000D01*
X106098000Y-69670000D02*
X105698000Y-69670000D01*
X76200000Y-59770000D02*
X76200000Y-62658000D01*
X91948000Y-71120000D02*
X91948000Y-68072000D01*
X91948000Y-68072000D02*
X92456000Y-67564000D01*
X89916000Y-67564000D02*
X92456000Y-67564000D01*
X94996000Y-67564000D02*
X97536000Y-67564000D01*
X94488000Y-71120000D02*
X94488000Y-68072000D01*
X94488000Y-68072000D02*
X94996000Y-67564000D01*
X84496000Y-52192000D02*
X84496000Y-52767000D01*
X84496000Y-52767000D02*
X85851000Y-54122000D01*
X85851000Y-54122000D02*
X85993000Y-54122000D01*
X85993000Y-54122000D02*
X86868000Y-54122000D01*
X88392000Y-58328000D02*
X88392000Y-55771000D01*
X88392000Y-55771000D02*
X86868000Y-54247000D01*
X86868000Y-54247000D02*
X86868000Y-54122000D01*
X86868000Y-59052000D02*
X87668000Y-59052000D01*
X87668000Y-59052000D02*
X88392000Y-58328000D01*
D38*
X81788000Y-56686000D02*
X81788000Y-53848000D01*
X81180000Y-53308000D02*
X81248000Y-53308000D01*
X81248000Y-53308000D02*
X81788000Y-53848000D01*
X78232000Y-53308000D02*
X79632000Y-53308000D01*
X79632000Y-53308000D02*
X81180000Y-53308000D01*
X81788000Y-53848000D02*
X81788000Y-52700000D01*
X81180000Y-53308000D02*
X81788000Y-52700000D01*
D37*
X81788000Y-52700000D02*
X82296000Y-52192000D01*
X86868000Y-56622000D02*
X81852000Y-56622000D01*
X81852000Y-56622000D02*
X81788000Y-56686000D01*
D38*
X79248000Y-71120000D02*
X79248000Y-68221000D01*
X79248000Y-68221000D02*
X81937000Y-65532000D01*
X81937000Y-65532000D02*
X82062000Y-65532000D01*
X81788000Y-62186000D02*
X81788000Y-65258000D01*
X81788000Y-65258000D02*
X82062000Y-65532000D01*
D37*
X81788000Y-62186000D02*
X86534000Y-62186000D01*
X86534000Y-62186000D02*
X86868000Y-61852000D01*
X89916000Y-61802000D02*
X86918000Y-61802000D01*
X86918000Y-61802000D02*
X86868000Y-61852000D01*
X111084998Y-84076998D02*
X112268000Y-85260000D01*
X112268000Y-85260000D02*
X112268000Y-86360000D01*
X111084998Y-81971998D02*
X111084998Y-84076998D01*
X117856000Y-66040000D02*
X117856000Y-75200996D01*
X117856000Y-75200996D02*
X111084998Y-81971998D01*
X141732000Y-58928000D02*
X124968000Y-58928000D01*
X142748000Y-57912000D02*
X141732000Y-58928000D01*
X142748000Y-56132000D02*
X142748000Y-57912000D01*
X140842000Y-54226000D02*
X142748000Y-56132000D01*
X140842000Y-52376000D02*
X140842000Y-54226000D01*
X124968000Y-58928000D02*
X117856000Y-66040000D01*
X110744000Y-89408000D02*
X112268000Y-87884000D01*
X112268000Y-87884000D02*
X112268000Y-86360000D01*
X98626000Y-89408000D02*
X110744000Y-89408000D01*
X97028000Y-86360000D02*
X97028000Y-87810000D01*
X97028000Y-87810000D02*
X98626000Y-89408000D01*
X148336000Y-90932000D02*
X115824000Y-90932000D01*
X115824000Y-90932000D02*
X115316000Y-90424000D01*
X149352000Y-89916000D02*
X148336000Y-90932000D01*
X149352000Y-76708000D02*
X149352000Y-89916000D01*
X152908000Y-73152000D02*
X149352000Y-76708000D01*
X152908000Y-64516000D02*
X152908000Y-73152000D01*
X152400000Y-64008000D02*
X152908000Y-64516000D01*
X152400000Y-40698000D02*
X152400000Y-64008000D01*
X151718000Y-39116000D02*
X151718000Y-40016000D01*
X151718000Y-40016000D02*
X152400000Y-40698000D01*
X151718000Y-35560000D02*
X151718000Y-36460000D01*
X151718000Y-36460000D02*
X151718000Y-39116000D01*
X151768000Y-32512000D02*
X151768000Y-35510000D01*
X151768000Y-35510000D02*
X151718000Y-35560000D01*
X143858000Y-35616000D02*
X148962000Y-35616000D01*
X148962000Y-35616000D02*
X149018000Y-35560000D01*
X136558000Y-35616000D02*
X143858000Y-35616000D01*
X105732201Y-65630809D02*
X106032200Y-65330810D01*
X105174009Y-66189001D02*
X105732201Y-65630809D01*
X93681001Y-66189001D02*
X105174009Y-66189001D01*
X92456000Y-64964000D02*
X93681001Y-66189001D01*
X92456000Y-64864000D02*
X92456000Y-64964000D01*
X119888000Y-60452000D02*
X116332000Y-64008000D01*
X116332000Y-64008000D02*
X115316000Y-64008000D01*
X119888000Y-51816000D02*
X119888000Y-60452000D01*
X119888000Y-48042000D02*
X119888000Y-51816000D01*
X121412000Y-47418000D02*
X120512000Y-47418000D01*
X120512000Y-47418000D02*
X119888000Y-48042000D01*
X124968000Y-46736000D02*
X125642000Y-46062000D01*
X125642000Y-46062000D02*
X125642000Y-44238000D01*
X122994000Y-46736000D02*
X124968000Y-46736000D01*
X121412000Y-47418000D02*
X122312000Y-47418000D01*
X122312000Y-47418000D02*
X122994000Y-46736000D01*
X101600000Y-57404000D02*
X101600000Y-58160000D01*
X101600000Y-58160000D02*
X94996000Y-64764000D01*
X94996000Y-64764000D02*
X94996000Y-64864000D01*
X101600000Y-48550000D02*
X101600000Y-53848000D01*
X100976000Y-47926000D02*
X101600000Y-48550000D01*
X101092000Y-47244000D02*
X101092000Y-47810000D01*
X101092000Y-47810000D02*
X100976000Y-47926000D01*
X100976000Y-47926000D02*
X100076000Y-47926000D01*
X101600000Y-46736000D02*
X101092000Y-47244000D01*
X101600000Y-45720000D02*
X101600000Y-46736000D01*
X102108000Y-45212000D02*
X101600000Y-45720000D01*
X104324000Y-45212000D02*
X102108000Y-45212000D01*
X105322000Y-44214000D02*
X104324000Y-45212000D01*
X105322000Y-42714000D02*
X105322000Y-44214000D01*
X123444000Y-46228000D02*
X124302000Y-46228000D01*
X124302000Y-46228000D02*
X124792000Y-45738000D01*
X124792000Y-45738000D02*
X124792000Y-44238000D01*
X122936000Y-45720000D02*
X123444000Y-46228000D01*
X122936000Y-45154000D02*
X122936000Y-45720000D01*
X121412000Y-44530000D02*
X122312000Y-44530000D01*
X122312000Y-44530000D02*
X122936000Y-45154000D01*
X100076000Y-45038000D02*
X100976000Y-45038000D01*
X100976000Y-45038000D02*
X101310000Y-44704000D01*
X101310000Y-44704000D02*
X103982000Y-44704000D01*
X103982000Y-44704000D02*
X104472000Y-44214000D01*
X104472000Y-44214000D02*
X104472000Y-42714000D01*
X113952000Y-56880000D02*
X113952000Y-59262000D01*
X113952000Y-59262000D02*
X114300000Y-59610000D01*
X108552000Y-56880000D02*
X108552000Y-59262000D01*
X108552000Y-59262000D02*
X108204000Y-59610000D01*
X108552000Y-56380000D02*
X110027000Y-56380000D01*
X110027000Y-56380000D02*
X110236000Y-56589000D01*
X110236000Y-56589000D02*
X110236000Y-58610000D01*
X110236000Y-58610000D02*
X110236000Y-59610000D01*
X108712000Y-73660000D02*
X104248000Y-73660000D01*
X104248000Y-73660000D02*
X102108000Y-71520000D01*
X102108000Y-71520000D02*
X102108000Y-71120000D01*
X110236000Y-72136000D02*
X108712000Y-73660000D01*
X110236000Y-62310000D02*
X110236000Y-72136000D01*
X113952000Y-56380000D02*
X112477000Y-56380000D01*
X112477000Y-56380000D02*
X112268000Y-56589000D01*
X112268000Y-56589000D02*
X112268000Y-58610000D01*
X112268000Y-58610000D02*
X112268000Y-59610000D01*
X84496000Y-50292000D02*
X85344000Y-50292000D01*
X86360000Y-51308000D02*
X86360000Y-52324000D01*
X85344000Y-50292000D02*
X86360000Y-51308000D01*
X86360000Y-52324000D02*
X86868000Y-52832000D01*
X86868000Y-52832000D02*
X87884000Y-52832000D01*
X87884000Y-52832000D02*
X88392000Y-53340000D01*
X88392000Y-53340000D02*
X88392000Y-55098000D01*
X88392000Y-55098000D02*
X89916000Y-56622000D01*
X89916000Y-56622000D02*
X89916000Y-56722000D01*
X89916000Y-56722000D02*
X89916000Y-59102000D01*
X93472000Y-81280000D02*
X91948000Y-82804000D01*
X91948000Y-82804000D02*
X91948000Y-86360000D01*
X98044000Y-81280000D02*
X93472000Y-81280000D01*
X107696000Y-81280000D02*
X100584000Y-81280000D01*
X109220000Y-81280000D02*
X107696000Y-81280000D01*
X117348000Y-76708000D02*
X112776000Y-81280000D01*
X118872000Y-75184000D02*
X117348000Y-76708000D01*
X118872000Y-70104000D02*
X118872000Y-75184000D01*
X119380000Y-69596000D02*
X118872000Y-70104000D01*
X146242370Y-69596000D02*
X119380000Y-69596000D01*
X150876000Y-66040000D02*
X149798370Y-66040000D01*
X149798370Y-66040000D02*
X146242370Y-69596000D01*
X91948000Y-80264000D02*
X89408000Y-82804000D01*
X89408000Y-82804000D02*
X89408000Y-86360000D01*
X98552000Y-80264000D02*
X91948000Y-80264000D01*
X110236000Y-80264000D02*
X101600000Y-80264000D01*
X117856000Y-77216000D02*
X114808000Y-80264000D01*
X120396000Y-70104000D02*
X147828000Y-70104000D01*
X119888000Y-70612000D02*
X119888000Y-73660000D01*
X119888000Y-70612000D02*
X120396000Y-70104000D01*
X119888000Y-75184000D02*
X117856000Y-77216000D01*
X119888000Y-73660000D02*
X119888000Y-75184000D01*
X149352000Y-68580000D02*
X147828000Y-70104000D01*
X150876000Y-68580000D02*
X149352000Y-68580000D01*
X110236000Y-51308000D02*
X110236000Y-53340000D01*
X107188000Y-67564000D02*
X107188000Y-64008000D01*
X107188000Y-64008000D02*
X102616000Y-59436000D01*
X102616000Y-59436000D02*
X102616000Y-57404000D01*
X109728000Y-53848000D02*
X102616000Y-53848000D01*
X110236000Y-53340000D02*
X109728000Y-53848000D01*
X108020000Y-45212000D02*
X110236000Y-45212000D01*
X107022000Y-42714000D02*
X107022000Y-44214000D01*
X107022000Y-44214000D02*
X108020000Y-45212000D01*
X116840000Y-65532000D02*
X116840000Y-75258000D01*
X107188000Y-84910000D02*
X107188000Y-86360000D01*
X116840000Y-75258000D02*
X107188000Y-84910000D01*
X124460000Y-57912000D02*
X116840000Y-65532000D01*
X128524000Y-57912000D02*
X124460000Y-57912000D01*
X131572000Y-54864000D02*
X128524000Y-57912000D01*
X131572000Y-54356000D02*
X131572000Y-54864000D01*
X127342000Y-45738000D02*
X128340000Y-46736000D01*
X128340000Y-46736000D02*
X131572000Y-46736000D01*
X127342000Y-44238000D02*
X127342000Y-45738000D01*
X121920000Y-35560000D02*
X120630000Y-35560000D01*
X120630000Y-35560000D02*
X118872000Y-37318000D01*
X118872000Y-37318000D02*
X118872000Y-41004000D01*
X118872000Y-41004000D02*
X118872000Y-42004000D01*
D41*
X123942000Y-42174000D02*
X124460000Y-41656000D01*
X129042000Y-42338000D02*
X128360000Y-41656000D01*
X125984000Y-41656000D02*
X128360000Y-41656000D01*
X124460000Y-41656000D02*
X125984000Y-41656000D01*
X125984000Y-41656000D02*
X127000000Y-40640000D01*
X127000000Y-35560000D02*
X127000000Y-40640000D01*
X127000000Y-40640000D02*
X127000000Y-41656000D01*
X128360000Y-41656000D02*
X128016000Y-41656000D01*
X128016000Y-41656000D02*
X127000000Y-40640000D01*
D39*
X128360000Y-41656000D02*
X127000000Y-41656000D01*
X127000000Y-41656000D02*
X124460000Y-41656000D01*
D42*
X123942000Y-42174000D02*
X123942000Y-44238000D01*
X129042000Y-44238000D02*
X129042000Y-42338000D01*
D37*
X97028000Y-40892000D02*
X97028000Y-42338000D01*
X101600000Y-35560000D02*
X101600000Y-36320000D01*
X101600000Y-36320000D02*
X97028000Y-40892000D01*
D41*
X108722000Y-40650000D02*
X108204000Y-40132000D01*
X103622000Y-40814000D02*
X104304000Y-40132000D01*
X104304000Y-40132000D02*
X108204000Y-40132000D01*
D39*
X104304000Y-40132000D02*
X106680000Y-40132000D01*
X106680000Y-40132000D02*
X108204000Y-40132000D01*
D41*
X106680000Y-35560000D02*
X106680000Y-38360000D01*
X106680000Y-38360000D02*
X106680000Y-40132000D01*
D42*
X108722000Y-40650000D02*
X108722000Y-42714000D01*
X103622000Y-42714000D02*
X103622000Y-40814000D01*
D37*
X118364000Y-56562000D02*
X118364000Y-55562000D01*
X118364000Y-55562000D02*
X118182000Y-55380000D01*
X118182000Y-55380000D02*
X116925000Y-55380000D01*
X113952000Y-55380000D02*
X116925000Y-55380000D01*
X116925000Y-55380000D02*
X118598000Y-53707000D01*
X118598000Y-53707000D02*
X118598000Y-52832000D01*
X118598000Y-50292000D02*
X118598000Y-51167000D01*
X118598000Y-51167000D02*
X118598000Y-52832000D01*
X118598000Y-47752000D02*
X118598000Y-48627000D01*
X118598000Y-48627000D02*
X118598000Y-50292000D01*
X118872000Y-44704000D02*
X118872000Y-47478000D01*
X118872000Y-47478000D02*
X118598000Y-47752000D01*
X113952000Y-54880000D02*
X113952000Y-54480000D01*
X113952000Y-54480000D02*
X115600000Y-52832000D01*
X115600000Y-52832000D02*
X116098000Y-52832000D01*
X115824000Y-44704000D02*
X115824000Y-47478000D01*
X115824000Y-47478000D02*
X116098000Y-47752000D01*
X116098000Y-50292000D02*
X116098000Y-49417000D01*
X116098000Y-49417000D02*
X116098000Y-47752000D01*
X116098000Y-52832000D02*
X116098000Y-51957000D01*
X116098000Y-51957000D02*
X116098000Y-50292000D01*
X108552000Y-54880000D02*
X100934000Y-54880000D01*
X100934000Y-54880000D02*
X100076000Y-54022000D01*
X96754000Y-52832000D02*
X96754000Y-53707000D01*
X96754000Y-53707000D02*
X97069000Y-54022000D01*
X97069000Y-54022000D02*
X99176000Y-54022000D01*
X99176000Y-54022000D02*
X100076000Y-54022000D01*
X96754000Y-50292000D02*
X96754000Y-51167000D01*
X96754000Y-51167000D02*
X96754000Y-52832000D01*
X96754000Y-47752000D02*
X96754000Y-48627000D01*
X96754000Y-48627000D02*
X96754000Y-50292000D01*
X97028000Y-45038000D02*
X97028000Y-47478000D01*
X97028000Y-47478000D02*
X96754000Y-47752000D01*
X94254000Y-52832000D02*
X94254000Y-53707000D01*
X94254000Y-53707000D02*
X95927000Y-55380000D01*
X95927000Y-55380000D02*
X108552000Y-55380000D01*
X94254000Y-50292000D02*
X94254000Y-51167000D01*
X94254000Y-51167000D02*
X94254000Y-52832000D01*
X94254000Y-47752000D02*
X94254000Y-48627000D01*
X94254000Y-48627000D02*
X94254000Y-50292000D01*
X93980000Y-45038000D02*
X93980000Y-47478000D01*
X93980000Y-47478000D02*
X94254000Y-47752000D01*
X149986000Y-51476000D02*
X149986000Y-52376000D01*
X139909001Y-49443001D02*
X147953001Y-49443001D01*
X147953001Y-49443001D02*
X149986000Y-51476000D01*
X137542000Y-47076000D02*
X139909001Y-49443001D01*
X137542000Y-46176000D02*
X137542000Y-47076000D01*
X146686000Y-46176000D02*
X146686000Y-42798000D01*
X146686000Y-42798000D02*
X147320000Y-42164000D01*
M02*
